{
  "images": [
    {"uri": "data:image/png;base64,"},
    {"uri": "data:image/png;base64,"}
  ],
  "accessors": [
    {
      "componentType": 5126,
      "min": [
        -8.5,
        -4,
        -1
      ],
      "byteOffset": 0,
      "bufferView": 0,
      "max": [
        8.5,
        4,
        1
      ],
      "count": 336,
      "type": "VEC3"
    },
    {
      "componentType": 5126,
      "byteOffset": 0,
      "bufferView": 1,
      "count": 336,
      "type": "VEC3"
    },
    {
      "componentType": 5126,
      "byteOffset": 0,
      "bufferView": 2,
      "count": 336,
      "type": "VEC2"
    },
    {
      "componentType": 5126,
      "byteOffset": 0,
      "bufferView": 2,
      "count": 336,
      "type": "VEC2"
    }
  ],
  "textures": [
    {
      "source": 0,
      "sampler": 0
    },
    {
      "source": 1,
      "sampler": 0
    }
  ],
  "buffers": [
    {
      "byteLength": 4032,
      "uri": "data:application/octet-stream;base64,"
    },
    {
      "byteLength": 4032,
      "uri": "data:application/octet-stream;base64,"
    },
    {
      "byteLength": 2688,
      "uri": "data:application/octet-stream;base64,"
    }
  ],
  "bufferViews": [
    {
      "byteOffset": 0,
      "byteLength": 4032,
      "buffer": 0,
      "byteStride": 12,
      "target": 34962
    },
    {
      "byteOffset": 0,
      "byteLength": 4032,
      "buffer": 1,
      "byteStride": 12,
      "target": 34962
    },
    {
      "byteOffset": 0,
      "byteLength": 2688,
      "buffer": 2,
      "byteStride": 8,
      "target": 34962
    }
  ],
  "samplers": [{
    "minFilter": 9728,
    "wrapT": 33071,
    "wrapS": 33071,
    "magFilter": 9728
  }],
  "scene": 0,
  "nodes": [
    {
      "children": [
        1,
        2,
        8,
        14
      ],
      "rotation": [
        0,
        -1,
        0,
        -4.371138828673793E-8
      ],
      "translation": [
        0,
        0,
        0
      ],
      "name": "World-Global",
      "scale": [
        -1,
        1,
        1
      ]
    },
    {
      "rotation": [
        0,
        0,
        0,
        1
      ],
      "translation": [
        0,
        0,
        0
      ],
      "name": "World-Local",
      "scale": [
        1,
        1,
        1
      ]
    },
    {
      "children": [
        3,
        4
      ],
      "rotation": [
        0,
        0,
        0,
        1
      ],
      "translation": [
        0,
        0,
        0
      ],
      "name": "shrimp-Global",
      "scale": [
        1,
        1,
        1
      ]
    },
    {
      "rotation": [
        0,
        0,
        0,
        1
      ],
      "translation": [
        0,
        0,
        0
      ],
      "name": "shrimp-Local",
      "scale": [
        1,
        1,
        1
      ]
    },
    {
      "children": [
        5,
        6
      ],
      "rotation": [
        0,
        0,
        0,
        1
      ],
      "translation": [
        0,
        -1,
        0
      ],
      "name": "se-Global",
      "scale": [
        1,
        1,
        1
      ]
    },
    {
      "rotation": [
        0,
        0,
        0,
        1
      ],
      "translation": [
        0,
        0,
        0
      ],
      "name": "se-Local",
      "scale": [
        1,
        1,
        1
      ]
    },
    {
      "children": [7],
      "rotation": [
        0,
        0,
        0,
        1
      ],
      "translation": [
        0,
        1,
        0.5
      ],
      "name": "tail-Global",
      "scale": [
        1,
        1,
        1
      ]
    },
    {
      "rotation": [
        0,
        0,
        0,
        1
      ],
      "translation": [
        0,
        0,
        0
      ],
      "name": "tail-Local",
      "scale": [
        1,
        1,
        1
      ]
    },
    {
      "children": [
        9,
        10,
        12
      ],
      "rotation": [
        0,
        0,
        0,
        1
      ],
      "translation": [
        0,
        0,
        0
      ],
      "name": "duck-Global",
      "scale": [
        1,
        1,
        1
      ]
    },
    {
      "rotation": [
        0,
        0,
        0,
        1
      ],
      "translation": [
        0,
        0,
        0
      ],
      "name": "duck-Local",
      "scale": [
        1,
        1,
        1
      ]
    },
    {
      "children": [11],
      "rotation": [
        0,
        0,
        0,
        1
      ],
      "translation": [
        0,
        2,
        -2
      ],
      "name": "duck-tail-Global",
      "scale": [
        1,
        1,
        1
      ]
    },
    {
      "rotation": [
        0,
        0,
        0,
        1
      ],
      "translation": [
        0,
        0,
        0
      ],
      "name": "duck-tail-Local",
      "scale": [
        1,
        1,
        1
      ]
    },
    {
      "children": [13],
      "rotation": [
        0,
        -0.3826834559440613,
        0,
        0.9238795042037964
      ],
      "translation": [
        -1.4901161193847656E-8,
        1,
        0.5
      ],
      "name": "duck-bec-Global",
      "scale": [
        1,
        1,
        1
      ]
    },
    {
      "rotation": [
        0,
        0,
        0,
        1
      ],
      "translation": [
        0,
        0,
        0
      ],
      "name": "duck-bec-Local",
      "scale": [
        1,
        1,
        1
      ]
    },
    {
      "children": [15],
      "rotation": [
        0,
        0,
        0,
        1
      ],
      "translation": [
        0,
        0,
        0
      ],
      "name": "cloud-Global",
      "scale": [
        1,
        1,
        1
      ]
    },
    {
      "rotation": [
        0,
        0,
        0,
        1
      ],
      "translation": [
        0,
        4,
        0
      ],
      "name": "cloud-Local",
      "scale": [
        1,
        1,
        1
      ],
      "mesh": 0
    }
  ],
  "materials": [{
    "name": "cloud-Material",
    "emissiveTexture": {
      "index": 1,
      "texCoord": 1
    },
    "pbrMetallicRoughness": {
      "baseColorTexture": {"index": 0},
      "metallicFactor": 0,
      "roughnessFactor": 1
    },
    "emissiveFactor": [
      1,
      1,
      1
    ]
  }],
  "animations": [],
  "scenes": [{"nodes": [0]}],
  "asset": {
    "generator": "VoxEdit Beta 66a30fb4",
    "version": "2.0"
  },
  "meshes": [{
    "primitives": [{
      "mode": 4,
      "material": 0,
      "attributes": {
        "POSITION": 0,
        "TEXCOORD_1": 3,
        "TEXCOORD_0": 2,
        "NORMAL": 1
      }
    }],
    "name": "cloud-Mesh"
  }]
}