{
  "images": [
    {"uri": "data:image/png;base64,"},
    {"uri": "data:image/png;base64,"}
  ],
  "accessors": [
    {
      "componentType": 5126,
      "min": [
        -10,
        -5.5,
        -0.5
      ],
      "byteOffset": 0,
      "bufferView": 0,
      "max": [
        10,
        5.5,
        0.5
      ],
      "count": 720,
      "type": "VEC3"
    },
    {
      "componentType": 5126,
      "byteOffset": 0,
      "bufferView": 1,
      "count": 720,
      "type": "VEC3"
    },
    {
      "componentType": 5126,
      "byteOffset": 0,
      "bufferView": 2,
      "count": 720,
      "type": "VEC2"
    },
    {
      "componentType": 5126,
      "byteOffset": 0,
      "bufferView": 2,
      "count": 720,
      "type": "VEC2"
    }
  ],
  "textures": [
    {
      "source": 0,
      "sampler": 0
    },
    {
      "source": 1,
      "sampler": 0
    }
  ],
  "buffers": [
    {
      "byteLength": 8640,
      "uri": "data:application/octet-stream;base64,"
    },
    {
      "byteLength": 8640,
      "uri": "data:application/octet-stream;base64,"
    },
    {
      "byteLength": 5760,
      "uri": "data:application/octet-stream;base64,"
    }
  ],
  "bufferViews": [
    {
      "byteOffset": 0,
      "byteLength": 8640,
      "buffer": 0,
      "byteStride": 12,
      "target": 34962
    },
    {
      "byteOffset": 0,
      "byteLength": 8640,
      "buffer": 1,
      "byteStride": 12,
      "target": 34962
    },
    {
      "byteOffset": 0,
      "byteLength": 5760,
      "buffer": 2,
      "byteStride": 8,
      "target": 34962
    }
  ],
  "samplers": [{
    "minFilter": 9728,
    "wrapT": 33071,
    "wrapS": 33071,
    "magFilter": 9728
  }],
  "scene": 0,
  "nodes": [
    {
      "children": [
        1,
        2,
        4
      ],
      "rotation": [
        0,
        -1,
        0,
        -4.371138828673793E-8
      ],
      "translation": [
        0,
        0,
        0
      ],
      "name": "World-Global",
      "scale": [
        -1,
        1,
        1
      ]
    },
    {
      "rotation": [
        0,
        0,
        0,
        1
      ],
      "translation": [
        0,
        0,
        0
      ],
      "name": "World-Local",
      "scale": [
        1,
        1,
        1
      ]
    },
    {
      "children": [3],
      "rotation": [
        0,
        0,
        0,
        1
      ],
      "translation": [
        0,
        12,
        0
      ],
      "name": "ACCESSORY-Global",
      "scale": [
        1,
        1,
        1
      ]
    },
    {
      "rotation": [
        0,
        0,
        0,
        1
      ],
      "translation": [
        0,
        0,
        0
      ],
      "name": "ACCESSORY-Local",
      "scale": [
        1,
        1,
        1
      ],
      "mesh": 0
    },
    {
      "children": [5],
      "rotation": [
        0,
        0,
        0,
        1
      ],
      "translation": [
        0,
        12,
        0
      ],
      "name": "FIRE-Global",
      "scale": [
        1,
        1,
        1
      ]
    },
    {
      "rotation": [
        0,
        0,
        0,
        1
      ],
      "translation": [
        0,
        0,
        0
      ],
      "name": "FIRE-Local",
      "scale": [
        1,
        1,
        1
      ]
    }
  ],
  "materials": [{
    "name": "squiggle-Material",
    "emissiveTexture": {
      "index": 1,
      "texCoord": 1
    },
    "pbrMetallicRoughness": {
      "baseColorTexture": {"index": 0},
      "metallicFactor": 0,
      "roughnessFactor": 1
    },
    "emissiveFactor": [
      1,
      1,
      1
    ]
  }],
  "animations": [],
  "scenes": [{"nodes": [0]}],
  "asset": {
    "generator": "VoxEdit Beta 66a30fb4",
    "version": "2.0"
  },
  "meshes": [{
    "primitives": [{
      "mode": 4,
      "material": 0,
      "attributes": {
        "POSITION": 0,
        "TEXCOORD_1": 3,
        "TEXCOORD_0": 2,
        "NORMAL": 1
      }
    }],
    "name": "squiggle-Mesh"
  }]
}